<?xml version="1.0" standalone="no"?>
<!DOCTYPE svg PUBLIC "-//W3C//DTD SVG 20010904//EN"
 "http://www.w3.org/TR/2001/REC-SVG-20010904/DTD/svg10.dtd">
<svg version="1.0" xmlns="http://www.w3.org/2000/svg"
 width="1000.000000pt" height="1000.000000pt" viewBox="0 0 1000.000000 1000.000000"
 preserveAspectRatio="xMidYMid meet">
<metadata>
Created by potrace 1.11, written by Peter Selinger 2001-2013
</metadata>
<g transform="translate(0.000000,1000.000000) scale(0.100000,-0.100000)"
fill="#000000" stroke="none">
<path d="M5252 9339 c-13 -5 -35 -11 -49 -14 -36 -6 -51 -23 -58 -65 -3 -19
-18 -48 -33 -63 -27 -28 -27 -29 -7 -43 46 -33 54 -45 65 -99 26 -126 -22
-275 -147 -455 -40 -56 -188 -246 -203 -260 -3 -3 -15 -17 -27 -32 l-21 -28
-31 138 c-18 75 -36 147 -42 160 -5 13 -9 34 -9 47 0 13 -4 34 -9 47 -5 13
-14 52 -20 88 -17 93 -18 99 -34 160 -22 83 -75 215 -98 244 -11 14 -30 31
-42 37 -28 15 -79 19 -93 8 -7 -6 -16 -4 -24 6 -14 17 -41 20 -56 5 -5 -5 -24
-10 -42 -12 -41 -3 -48 -11 -56 -70 -5 -34 -14 -51 -32 -62 -17 -12 -23 -23
-20 -39 5 -28 74 -341 84 -387 5 -19 10 -39 11 -45 1 -5 4 -19 6 -30 3 -11 7
-31 9 -45 3 -14 15 -68 26 -120 12 -52 23 -106 26 -118 3 -13 18 -83 35 -155
69 -304 69 -314 17 -405 -25 -44 -28 -56 -17 -63 17 -11 15 -11 61 0 40 9 38
12 53 -74 2 -16 9 -45 14 -63 6 -18 7 -40 4 -48 -3 -9 -74 -70 -157 -137 -147
-117 -366 -296 -376 -307 -3 -3 -34 -30 -70 -59 -36 -30 -69 -60 -75 -65 -5
-6 -37 -33 -69 -61 -158 -134 -224 -188 -261 -213 -22 -15 -41 -30 -43 -34 -2
-5 -8 -8 -14 -8 -5 0 -30 -14 -54 -32 -24 -17 -47 -29 -50 -26 -3 4 -7 30 -10
60 -2 29 -6 79 -9 112 -7 68 1 84 79 162 82 81 200 217 220 253 5 9 12 18 15
21 12 10 57 86 93 155 70 135 78 227 29 331 -34 74 -110 154 -162 171 -164 54
-187 65 -184 87 2 11 13 75 25 141 11 66 23 133 25 149 2 15 7 35 9 45 3 9 8
30 10 46 3 17 17 80 31 142 27 121 27 149 2 168 -9 7 -18 21 -20 33 -4 30 -28
54 -48 49 -10 -3 -26 4 -35 14 -43 48 -189 8 -228 -61 -71 -129 -103 -224
-132 -395 -3 -16 -9 -46 -14 -65 -5 -19 -12 -51 -15 -70 -3 -19 -12 -69 -20
-110 -21 -108 -27 -143 -29 -164 -3 -19 -45 -70 -53 -62 -2 2 -79 -33 -171
-79 -92 -45 -169 -81 -171 -79 -2 2 3 18 12 36 44 94 95 218 103 251 1 4 2 8
4 10 6 8 11 51 12 117 1 86 -17 157 -61 234 -115 200 -394 258 -691 143 -19
-8 -51 -20 -70 -27 -57 -22 -190 -93 -270 -145 -64 -41 -214 -149 -230 -165
-3 -3 -27 -23 -55 -44 -27 -22 -54 -44 -60 -50 -5 -6 -37 -33 -70 -61 -95 -78
-158 -138 -350 -330 -223 -223 -265 -270 -554 -620 -96 -117 -208 -302 -256
-426 -30 -74 -26 -112 15 -164 l27 -34 112 57 c115 58 203 130 296 242 21 25
56 67 79 94 22 28 69 84 104 125 363 434 713 790 1005 1021 11 8 24 20 31 25
31 29 235 170 275 191 62 33 85 38 163 36 113 -1 137 -34 124 -164 -11 -104
-55 -207 -143 -342 -44 -66 -121 -174 -133 -186 -3 -3 -18 -23 -35 -45 -16
-22 -34 -45 -40 -51 -5 -6 -21 -26 -35 -44 -14 -18 -38 -49 -55 -68 -54 -65
-207 -242 -240 -278 -89 -98 -151 -168 -157 -178 -11 -17 -22 0 -58 94 -18 47
-36 90 -40 95 -4 6 -13 26 -19 46 -17 53 -43 79 -79 79 -18 0 -32 6 -36 16 -5
13 -9 14 -21 4 -11 -9 -19 -9 -28 -2 -10 8 -28 7 -67 -3 -54 -14 -79 -34 -81
-64 -2 -36 -9 -52 -30 -70 -17 -13 -23 -29 -23 -57 0 -37 10 -121 20 -168 2
-12 13 -82 24 -156 11 -74 25 -160 30 -190 5 -30 12 -71 14 -90 5 -38 15 -100
22 -133 2 -12 6 -37 9 -57 3 -20 7 -45 9 -55 2 -11 9 -56 16 -100 7 -44 14
-89 16 -100 2 -10 6 -35 9 -55 3 -20 8 -47 10 -60 3 -14 8 -41 10 -60 3 -19 8
-46 11 -60 8 -35 13 -59 18 -100 5 -35 21 -126 33 -190 15 -78 9 -93 -79 -211
-147 -196 -265 -378 -383 -591 -55 -99 -185 -367 -185 -381 0 -7 -4 -17 -8
-22 -5 -6 -17 -32 -27 -60 -9 -27 -23 -63 -30 -80 -23 -54 -73 -210 -100 -311
-32 -121 -35 -133 -50 -219 -3 -16 -8 -37 -10 -45 -2 -8 -7 -37 -11 -65 -3
-27 -10 -72 -14 -99 -15 -95 -5 -295 19 -381 58 -208 199 -386 325 -411 53
-11 70 -11 111 -1 51 13 69 26 55 42 -12 14 -38 87 -45 123 -2 14 -9 48 -14
76 -26 133 -34 399 -18 561 7 69 10 86 21 135 3 14 8 43 11 65 18 126 116 461
175 600 5 11 16 37 24 58 21 52 109 241 116 247 3 3 16 28 29 55 26 54 117
207 188 318 39 62 63 83 63 56 0 -27 85 -189 99 -189 38 1 54 31 66 120 3 30
8 66 10 80 10 68 16 111 20 146 16 124 34 191 57 215 13 13 93 107 157 184 38
45 308 312 470 465 242 228 438 411 501 469 25 23 54 50 65 60 48 44 107 91
115 91 5 0 26 -30 47 -66 21 -36 43 -74 48 -84 32 -54 79 -82 140 -84 77 -3
248 53 375 123 133 72 254 145 274 163 11 10 24 18 28 18 5 0 14 5 21 10 7 6
44 33 82 61 200 147 434 376 599 587 22 28 44 52 47 52 4 0 17 -28 30 -62 26
-71 106 -246 135 -296 10 -18 42 -69 70 -114 l51 -80 27 24 c28 23 42 70 73
239 16 88 9 388 -12 498 -1 9 -6 36 -10 61 -4 25 -9 54 -11 65 -2 11 -9 49
-15 85 -5 36 -12 74 -15 86 -4 17 -1 20 23 18 15 -1 69 -5 118 -9 50 -3 106
-8 125 -10 19 -2 76 -7 125 -10 50 -4 101 -8 115 -10 14 -2 57 -7 95 -10 222
-20 295 -37 295 -69 0 -15 -92 -200 -102 -204 -4 -2 -8 -8 -8 -13 0 -10 -46
-79 -155 -229 -34 -47 -77 -107 -97 -135 -19 -27 -164 -230 -322 -450 -158
-220 -306 -427 -328 -460 -91 -132 -169 -248 -184 -274 -8 -14 -22 -38 -32
-53 -143 -223 -312 -597 -312 -693 0 -37 24 -87 54 -112 14 -13 26 -32 26 -44
0 -11 13 -34 29 -50 45 -45 103 -41 276 20 172 60 257 97 452 194 84 42 154
73 156 69 3 -4 8 -41 11 -82 7 -75 12 -129 21 -205 14 -111 13 -126 -2 -121
-8 3 -18 6 -22 6 -4 0 -37 28 -72 63 -81 77 -173 119 -262 118 -31 0 -66 -5
-77 -11 -11 -6 -20 -8 -20 -5 0 11 -96 -44 -121 -69 -14 -14 -41 -54 -59 -88
-47 -90 -90 -125 -74 -61 8 30 -14 55 -69 78 -91 38 -103 43 -124 49 -52 16
-73 19 -157 21 -61 2 -106 -3 -145 -15 -53 -16 -130 -49 -141 -60 -3 -3 -23
-17 -45 -32 -22 -15 -63 -49 -90 -75 -57 -53 -119 -111 -279 -258 -60 -55
-123 -113 -141 -130 -17 -16 -75 -70 -130 -120 -54 -49 -114 -105 -134 -124
-50 -46 -197 -181 -249 -227 -24 -22 -67 -61 -97 -89 -45 -42 -130 -121 -246
-226 -64 -59 -107 -85 -154 -96 -122 -27 -151 -44 -158 -94 -3 -24 -16 -52
-30 -68 -30 -32 -26 -46 19 -67 30 -14 35 -22 34 -48 -3 -53 -1 -56 33 -56 36
0 183 41 226 63 62 33 110 56 170 83 103 46 192 114 371 284 26 25 87 81 135
125 49 44 105 96 125 115 40 38 231 215 324 301 32 30 75 70 95 89 21 19 68
64 107 99 38 35 102 95 142 134 39 38 72 64 72 58 0 -6 -28 -64 -62 -129 -70
-134 -109 -211 -201 -402 -71 -147 -120 -225 -176 -281 -20 -20 -76 -80 -126
-134 -337 -367 -529 -550 -749 -712 -39 -28 -76 -57 -83 -62 -7 -6 -16 -11
-22 -11 -5 0 -11 -4 -13 -8 -4 -10 -135 -92 -147 -92 -5 0 -11 -4 -13 -8 -5
-13 -132 -69 -219 -97 -244 -77 -392 8 -482 276 -45 134 -51 185 -51 399 0
156 5 251 19 330 2 14 6 43 10 65 24 166 104 438 182 620 70 164 243 468 308
542 5 6 21 26 35 44 90 118 260 274 326 300 42 16 68 17 126 7 77 -14 123 -42
203 -122 92 -92 181 -145 273 -162 12 -2 34 -7 50 -10 39 -9 268 -10 332 -1
75 10 167 41 275 92 50 23 121 57 159 75 83 39 170 123 208 201 47 95 20 120
-75 70 -172 -91 -459 -135 -705 -109 -156 17 -241 97 -298 282 -25 84 -36 230
-22 316 15 98 20 125 25 134 3 4 8 25 10 45 3 20 7 38 8 40 2 1 -10 30 -27 62
-29 55 -38 64 -62 60 -5 -1 -17 5 -26 14 -24 22 -120 16 -173 -9 -58 -28 -134
-154 -172 -281 -18 -60 -25 -248 -12 -322 7 -35 14 -31 -137 -78 -333 -102
-561 -311 -853 -780 -79 -127 -186 -349 -248 -515 -36 -97 -83 -249 -89 -285
-1 -5 -5 -16 -10 -23 -4 -7 -5 -16 -2 -19 3 -3 1 -13 -3 -22 -5 -9 -12 -34
-15 -56 -4 -22 -8 -47 -11 -55 -2 -8 -12 -62 -20 -120 -61 -400 -24 -709 117
-975 62 -117 151 -229 228 -287 86 -65 220 -108 317 -102 188 12 292 40 528
143 87 37 307 151 326 167 8 8 19 14 23 14 12 0 200 125 291 195 94 72 124 98
214 182 31 29 59 53 62 53 4 0 -11 -60 -32 -132 -48 -162 -145 -546 -154 -608
-3 -25 -8 -52 -10 -60 -5 -18 -15 -74 -20 -113 -2 -15 -7 -45 -10 -67 -3 -22
-8 -54 -11 -72 -16 -112 -22 -332 -11 -408 14 -97 37 -163 89 -262 46 -87 132
-185 188 -214 50 -27 222 -26 365 2 118 22 380 134 575 244 221 126 394 281
677 606 10 12 48 54 85 95 117 130 138 154 138 162 0 19 -45 1 -160 -64 -164
-93 -177 -101 -300 -173 -57 -33 -112 -65 -122 -71 -10 -5 -70 -43 -135 -83
-65 -40 -127 -79 -138 -85 -11 -7 -31 -19 -45 -28 -14 -9 -90 -56 -169 -104
-239 -145 -325 -182 -440 -191 -114 -9 -136 11 -164 146 -15 73 -17 368 -4
430 4 14 8 43 11 65 10 75 15 100 45 252 17 84 42 199 57 255 14 57 27 110 29
119 11 55 107 375 161 539 70 208 198 555 245 658 15 34 26 62 23 62 -2 0 3
11 12 25 9 14 12 25 8 25 -5 0 -4 4 2 8 5 4 20 32 33 62 38 93 196 393 255
485 l55 87 -5 -208 c-5 -239 1 -275 69 -404 121 -229 176 -259 367 -198 54 17
160 65 242 109 10 5 23 9 29 9 15 0 98 57 142 99 42 39 111 135 127 176 6 14
15 37 21 53 6 15 10 27 9 27 -2 0 32 88 35 93 2 2 18 -7 38 -18 59 -35 147
-37 261 -6 116 32 178 58 356 148 150 77 228 130 311 209 58 56 129 149 129
168 0 6 7 11 15 11 8 0 15 -8 15 -18 0 -10 3 -22 8 -26 4 -4 7 -11 8 -14 4
-33 96 -217 149 -299 109 -167 137 -192 181 -158 10 8 26 15 35 15 28 0 38 24
41 88 2 34 5 62 8 62 14 0 1 287 -17 365 -2 11 -6 33 -9 50 -2 16 -7 37 -10
47 -2 9 -6 25 -8 35 -2 10 -34 135 -71 278 -36 143 -68 271 -71 285 -3 14 -11
48 -19 75 -30 108 -175 675 -175 686 0 7 23 30 84 84 6 6 36 30 66 55 30 25
63 52 73 60 10 8 29 24 41 35 12 11 45 40 72 63 197 174 368 341 519 507 50
54 98 107 108 117 18 19 52 24 62 8 3 -5 -37 -96 -88 -202 -52 -106 -127 -260
-166 -343 -40 -82 -79 -162 -87 -176 -37 -71 -117 -273 -130 -330 -3 -13 -7
-35 -10 -49 -24 -110 -21 -156 12 -209 l19 -30 59 30 c96 49 189 131 270 239
43 57 52 72 94 155 14 28 28 52 31 55 3 3 95 183 205 400 109 217 207 403 218
412 15 14 31 17 67 13 51 -6 267 -6 321 -1 80 9 140 19 225 37 131 29 182 34
168 17 -6 -7 -126 -175 -268 -373 -141 -198 -263 -369 -271 -380 -42 -59 -264
-386 -264 -390 0 -3 -16 -28 -35 -55 -19 -27 -35 -54 -35 -59 0 -5 -3 -11 -8
-13 -4 -1 -41 -57 -81 -123 -41 -66 -81 -128 -89 -137 -8 -10 -11 -18 -6 -18
5 0 4 -4 -1 -8 -13 -9 -116 -182 -228 -382 -16 -30 -38 -69 -47 -85 -74 -133
-287 -552 -340 -670 -13 -27 -36 -79 -52 -115 -43 -92 -127 -289 -164 -380 -9
-25 -25 -63 -34 -85 -10 -22 -34 -85 -54 -140 -21 -55 -42 -109 -47 -120 -6
-12 -11 -27 -13 -35 -2 -8 -6 -22 -9 -30 -11 -28 -49 -142 -52 -154 -1 -6 -5
-18 -8 -26 -22 -54 -136 -468 -153 -555 -2 -11 -6 -31 -9 -45 -4 -14 -8 -36
-11 -50 -2 -14 -7 -38 -11 -55 -10 -43 -12 -56 -17 -100 -3 -22 -8 -51 -11
-65 -3 -14 -7 -47 -11 -75 -3 -27 -7 -66 -9 -85 -23 -179 -22 -505 0 -680 3
-19 7 -55 10 -80 7 -66 50 -276 69 -340 9 -30 18 -62 20 -70 27 -102 96 -235
256 -488 l33 -52 170 2 170 3 23 40 c13 22 23 47 24 56 0 9 -19 43 -43 75 -54
74 -108 166 -131 224 -10 25 -23 59 -30 75 -27 62 -88 262 -91 295 -1 8 -4 29
-8 45 -4 17 -9 41 -12 55 -3 14 -7 36 -9 50 -9 43 -17 103 -23 165 -9 88 -8
528 1 610 5 39 9 81 11 95 15 140 53 344 102 535 19 77 36 147 38 155 2 8 4
15 5 15 1 0 3 7 5 15 12 53 150 472 178 540 5 14 11 30 12 35 3 12 110 283
132 335 8 19 19 44 23 55 5 11 19 45 33 75 14 30 39 89 57 130 37 87 252 522
308 625 63 116 159 287 182 325 68 111 110 182 110 186 0 3 8 17 19 32 10 15
54 83 97 152 44 69 83 130 87 135 4 6 39 57 77 115 38 58 73 110 77 115 5 6
36 51 70 100 62 92 285 412 300 430 5 6 29 39 54 75 25 36 61 88 80 115 206
292 519 759 519 774 0 5 4 11 8 13 5 2 29 37 55 78 164 267 214 362 257 490
25 75 23 70 46 175 54 257 -82 523 -321 627 -57 25 -175 61 -240 73 -36 6
-179 18 -215 18 -43 0 -194 -13 -220 -18 -14 -3 -43 -7 -65 -10 -173 -20 -453
-101 -700 -200 -261 -105 -600 -273 -817 -404 -14 -9 -50 -30 -80 -47 -95 -56
-374 -243 -463 -311 -6 -5 -46 -35 -90 -67 -74 -55 -316 -247 -341 -271 -6 -5
-35 -30 -64 -55 -29 -25 -58 -50 -64 -55 -96 -87 -168 -147 -164 -135 4 8 23
55 43 103 46 112 50 179 13 235 -14 20 -29 48 -33 61 -10 31 -63 82 -111 105
-22 10 -50 24 -64 31 -50 25 -193 54 -300 60 -30 2 -89 6 -130 9 -41 4 -106 9
-145 11 -90 7 -155 13 -230 21 -33 4 -75 7 -92 8 -18 0 -33 5 -33 9 0 5 42 59
93 120 260 311 360 466 423 651 32 94 37 120 36 191 -2 82 -39 174 -96 238
-52 59 -200 102 -264 76z m3994 -700 c3 -5 9 -7 13 -5 10 7 110 -20 158 -42
137 -63 166 -130 138 -326 -7 -52 -39 -172 -55 -211 -8 -16 -14 -32 -15 -35
-11 -44 -410 -691 -442 -717 -12 -9 -29 -6 -81 14 -158 59 -332 102 -487 118
-88 9 -139 16 -142 19 -2 2 19 50 46 107 97 208 152 333 183 419 11 30 22 62
25 70 3 8 7 20 9 27 1 6 7 28 14 47 13 40 7 99 -17 156 -32 75 -157 125 -224
90 -34 -18 -77 -68 -91 -107 -7 -18 -16 -33 -20 -33 -4 0 -8 -6 -8 -12 0 -7
-18 -50 -40 -96 -22 -46 -40 -85 -40 -87 0 -2 -25 -57 -56 -122 -31 -65 -83
-176 -116 -248 -85 -186 -77 -178 -151 -171 -34 4 -73 8 -87 11 -51 8 -197 27
-250 31 -53 5 -91 5 -228 0 -62 -2 -81 -12 -82 -43 0 -6 -4 -13 -9 -15 -17 -6
-20 -71 -6 -105 8 -18 30 -57 50 -87 34 -52 47 -60 113 -72 33 -6 68 -13 100
-20 15 -4 35 -6 45 -6 10 1 17 -3 15 -9 -4 -13 -871 -589 -877 -583 -3 2 -6
10 -7 17 -40 236 -136 426 -247 492 -15 9 -6 22 65 95 85 87 136 134 247 230
35 30 74 64 87 75 12 12 37 32 55 45 18 14 37 30 43 35 113 105 720 535 755
535 6 0 11 5 11 10 0 6 7 10 15 10 8 0 15 5 15 10 0 6 4 10 9 10 4 0 60 30
122 66 255 149 489 254 719 324 119 36 126 37 160 44 14 2 57 11 95 19 39 8
97 18 130 22 33 4 61 8 63 10 8 8 273 2 278 -6z m-6351 -1311 c-4 -57 -9 -134
-10 -173 -2 -38 -4 -70 -5 -70 -1 0 -3 -34 -5 -75 -8 -144 -11 -153 -73 -213
-31 -31 -68 -66 -82 -77 -14 -12 -54 -47 -88 -78 -94 -84 -103 -92 -171 -152
-34 -30 -79 -71 -100 -90 -21 -19 -84 -78 -142 -131 -136 -126 -164 -152 -359
-339 -237 -227 -304 -289 -306 -287 -2 1 -5 24 -8 49 -3 26 -10 78 -15 115 -5
38 -9 75 -9 83 -1 8 -6 46 -11 83 -6 37 -13 89 -17 115 -3 26 -7 61 -11 77
-14 75 -10 93 26 136 82 98 226 244 397 406 56 52 66 60 169 147 39 32 81 68
95 80 67 56 275 208 403 292 78 52 149 99 157 105 20 13 164 98 168 99 2 0 0
-46 -3 -102z m3261 -480 c1 -83 11 -155 36 -258 11 -47 21 -94 23 -105 2 -11
9 -40 15 -65 29 -125 26 -140 -42 -186 -23 -16 -52 -37 -63 -46 -22 -18 -312
-234 -346 -258 -12 -8 -27 -20 -33 -25 -6 -6 -25 -21 -43 -33 l-31 -22 -24 46
c-31 63 -49 73 -118 69 -62 -4 -122 -25 -153 -53 -21 -18 -57 -88 -57 -109 0
-7 -3 -13 -8 -13 -7 0 -20 -26 -42 -85 -7 -16 -13 -54 -15 -83 -3 -58 -18 -81
-68 -107 -18 -9 -45 -25 -62 -35 -16 -11 -43 -27 -60 -35 -16 -8 -82 -47 -145
-86 -107 -67 -200 -115 -200 -104 0 3 4 13 9 23 5 9 37 74 71 144 34 70 91
175 127 235 106 178 481 724 502 731 5 2 17 -15 27 -37 9 -22 22 -39 28 -38 6
1 49 22 96 45 130 67 251 172 360 312 14 18 30 37 35 44 6 6 37 43 70 81 80
93 99 114 105 114 3 1 6 -27 6 -61z m245 -1118 c22 -85 42 -166 45 -180 3 -14
9 -38 14 -55 10 -32 70 -259 75 -285 2 -8 13 -51 24 -96 12 -45 24 -91 26
-104 2 -12 7 -25 10 -28 3 -3 -27 -24 -66 -46 -38 -23 -156 -97 -260 -166
-105 -69 -198 -129 -207 -135 -9 -5 -19 -13 -22 -17 -9 -11 -152 -84 -179 -91
-37 -9 -64 28 -99 138 -31 101 -37 134 -47 260 -3 39 -7 90 -10 115 -2 25 -7
81 -10 125 -13 199 -15 269 -10 286 3 10 29 35 58 56 29 21 57 41 62 46 6 4
129 93 275 198 l265 190 8 -28 c4 -15 26 -98 48 -183z m-1381 -1220 c23 -22
51 -62 62 -88 37 -83 30 -223 -16 -311 -22 -41 -85 -103 -100 -98 -25 8 -49
283 -32 362 2 11 7 40 10 65 4 25 8 54 10 65 3 11 5 26 5 33 2 21 19 13 61
-28z"/>
</g>
</svg>
